<?xml version="1.0" encoding="UTF-8"?>
<svg xmlns="http://www.w3.org/2000/svg" viewBox="0 0 1600 620" role="img" aria-label="pi-evolver — AI agent memory">
<title>pi-evolver</title>
<desc>Geometric low-poly fox head in ultralight purple tones on the left, PI-EVOLVER wordmark stack on the right.</desc>
<defs>
  <linearGradient id="bg" x1="0%" y1="0%" x2="100%" y2="100%">
    <stop offset="0%"  stop-color="#06040E"/>
    <stop offset="50%" stop-color="#0B0818"/>
    <stop offset="100%" stop-color="#06040E"/>
  </linearGradient>

  <radialGradient id="coreGlow" cx="50%" cy="45%" r="55%">
    <stop offset="0%"  stop-color="#120820"/>
    <stop offset="100%" stop-color="#06040E"/>
  </radialGradient>

  <radialGradient id="eyeColor" cx="50%" cy="50%" r="50%">
    <stop offset="0%"  stop-color="#DDD6FE"/>
    <stop offset="60%" stop-color="#A78BFA"/>
    <stop offset="100%" stop-color="#6D28D9"/>
  </radialGradient>

  <linearGradient id="wordmarkGrad" x1="0%" y1="0%" x2="0%" y2="100%">
    <stop offset="0%"  stop-color="#C4B5FD"/>
    <stop offset="100%" stop-color="#8B5CF6"/>
  </linearGradient>

  <filter id="eyeGlow" x="-50%" y="-50%" width="200%" height="200%">
    <feGaussianBlur stdDeviation="4" result="b"/>
    <feMerge><feMergeNode in="b"/><feMergeNode in="SourceGraphic"/></feMerge>
  </filter>

  <pattern id="spGrid" width="40" height="40" patternUnits="userSpaceOnUse">
    <path d="M 40 0 L 0 0 0 40" fill="none" stroke="#1A1225" stroke-width="0.5"/>
  </pattern>
</defs>
<rect width="1600" height="620" fill="url(#bg)"/>
<rect width="1600" height="620" fill="url(#spGrid)" opacity="0.35"/>
<line x1="0" y1="310" x2="1600" y2="310" stroke="#7C3AED" stroke-width="0.3" opacity="0.1"/>
<g transform="translate(80, 60) scale(0.95)">
<circle cx="256" cy="256" r="248" fill="url(#coreGlow)" stroke="#1F1633" stroke-width="2"/>

  <polygon points="155,85  195,210  128,215" fill="#7C3AED" stroke="#A78BFA" stroke-width="1" stroke-linejoin="round"/>
  <polygon points="165,105 190,205 140,207" fill="#5B2FA3"/>
  <polygon points="172,130 184,195 150,198" fill="#DDD6FE" opacity="0.65"/>


  <polygon points="357,85  317,210  384,215" fill="#7C3AED" stroke="#A78BFA" stroke-width="1" stroke-linejoin="round"/>
  <polygon points="347,105 322,205 372,207" fill="#5B2FA3"/>
  <polygon points="340,130 328,195 362,198" fill="#DDD6FE" opacity="0.65"/>


  <polygon points="148,210 256,165 364,210 360,255 256,240 152,255" fill="#5B2FA3"/>


  <polygon points="200,210 256,180 312,210 280,245 256,235 232,245" fill="#A78BFA"/>


  <polygon points="160,240 215,225 215,255 165,265" fill="#3D1E5C"/>
  <polygon points="352,240 297,225 297,255 347,265" fill="#3D1E5C"/>


  <polygon points="152,255 190,268 215,310 256,320 297,310 322,268 360,255 352,325 322,368 256,390 190,368 160,325" fill="#7C3AED"/>


  <polygon points="175,290 225,285 230,330 200,360 165,340 158,315" fill="#F5F3FF"/>
  <polygon points="337,290 287,285 282,330 312,360 347,340 354,315" fill="#F5F3FF"/>


  <polygon points="152,255 135,295 145,335 160,325 162,285" fill="#3D1E5C"/>
  <polygon points="360,255 377,295 367,335 352,325 350,285" fill="#3D1E5C"/>


  <polygon points="230,285 256,272 282,285 272,335 256,342 240,335" fill="#A78BFA"/>


  <polygon points="228,288 230,285 240,335 225,330" fill="#5B2FA3"/>
  <polygon points="284,288 282,285 272,335 287,330" fill="#5B2FA3"/>


  <polygon points="225,340 256,335 287,340 282,370 256,390 230,370" fill="#FFFFFF"/>
  <polygon points="240,355 256,350 272,355 268,375 256,385 244,375" fill="#F5F3FF" opacity="0.8"/>


  <polygon points="246,328 256,322 266,328 262,340 256,345 250,340" fill="#0D0718" stroke="#3D1E5C" stroke-width="1"/>
  <ellipse cx="256" cy="332" rx="5" ry="3" fill="#2A1A3D"/>


  <polygon points="175,250 225,240 228,270 205,285 170,275" fill="#1A0B2E"/>
  <polygon points="337,250 287,240 284,270 307,285 342,275" fill="#1A0B2E"/>


  <g filter="url(#eyeGlow)">
    <ellipse cx="198" cy="263" rx="14" ry="9" fill="url(#eyeColor)"/>
    <ellipse cx="198" cy="263" rx="6"  ry="6" fill="#A78BFA"/>
    <ellipse cx="195" cy="260" rx="3"  ry="2" fill="#FFFFFF" opacity="0.9"/>
  </g>
  <g filter="url(#eyeGlow)">
    <ellipse cx="314" cy="263" rx="14" ry="9" fill="url(#eyeColor)"/>
    <ellipse cx="314" cy="263" rx="6"  ry="6" fill="#A78BFA"/>
    <ellipse cx="317" cy="260" rx="3"  ry="2" fill="#FFFFFF" opacity="0.9"/>
  </g>


  <g opacity="0.7">
    <rect x="243" y="214" width="26" height="3"  rx="1" fill="#A78BFA"/>
    <rect x="248" y="217" width="3"  height="14" rx="1" fill="#A78BFA"/>
    <rect x="261" y="217" width="3"  height="14" rx="1" fill="#A78BFA"/>
  </g>


  <line x1="170" y1="320" x2="125" y2="315" stroke="#A78BFA" stroke-width="1" opacity="0.30"/>
  <line x1="168" y1="330" x2="118" y2="330" stroke="#A78BFA" stroke-width="1" opacity="0.22"/>
  <line x1="170" y1="340" x2="130" y2="345" stroke="#A78BFA" stroke-width="1" opacity="0.15"/>
  <circle cx="125" cy="315" r="2" fill="#A78BFA" opacity="0.35"/>
  <circle cx="118" cy="330" r="2" fill="#A78BFA" opacity="0.28"/>

  <line x1="342" y1="320" x2="387" y2="315" stroke="#A78BFA" stroke-width="1" opacity="0.30"/>
  <line x1="344" y1="330" x2="394" y2="330" stroke="#A78BFA" stroke-width="1" opacity="0.22"/>
  <line x1="342" y1="340" x2="382" y2="345" stroke="#A78BFA" stroke-width="1" opacity="0.15"/>
  <circle cx="387" cy="315" r="2" fill="#A78BFA" opacity="0.35"/>
  <circle cx="394" cy="330" r="2" fill="#A78BFA" opacity="0.28"/>

<line x1="165" y1="263" x2="347" y2="263" stroke="#A78BFA" stroke-width="0.5" opacity="0.18"/>
</g>

  <g transform="translate(700, 0)">
    <text x="0" y="305"
          font-family="Arial, Helvetica, sans-serif"
          font-weight="bold"
          font-size="120"
          fill="url(#wordmarkGrad)"
          letter-spacing="10">PI-EVOLVER</text>

    <text x="4" y="355"
          font-family="Menlo, Consolas, monospace"
          font-size="22"
          fill="#7F6B99"
          letter-spacing="6">AI AGENT MEMORY</text>

    <text x="4" y="405"
          font-family="Arial, Helvetica, sans-serif"
          font-size="18"
          fill="#5A4D72">auto-learning daemon  /  strategy presets  /  personality clamps</text>

    <rect x="4" y="425" width="52" height="24" rx="4" fill="#1C142E" stroke="#5B2FA3" stroke-width="1"/>
    <text x="30" y="442"
          font-family="Menlo, Consolas, monospace"
          font-size="12"
          fill="#A78BFA"
          text-anchor="middle">v2.0</text>
  </g>

<rect x="1" y="1" width="1598" height="618" rx="4" fill="none" stroke="#3D1E5C" stroke-width="1"/>
</svg>
